<?xml version="1.0" encoding="UTF-8" standalone="no"?>
<!-- Created with Inkscape (http://www.inkscape.org/) -->

<svg
   width="1122.5197"
   height="793.70081"
   viewBox="0 0 296.99999 210"
   version="1.1"
   id="svg1"
   inkscape:version="1.3.2 (091e20e, 2023-11-25, custom)"
   sodipodi:docname="Door(s)_logo.svg"
   xml:space="preserve"
   inkscape:export-filename="Logo\Export\Door(s)_logo.png"
   inkscape:export-xdpi="96"
   inkscape:export-ydpi="96"
   xmlns:inkscape="http://www.inkscape.org/namespaces/inkscape"
   xmlns:sodipodi="http://sodipodi.sourceforge.net/DTD/sodipodi-0.dtd"
   xmlns="http://www.w3.org/2000/svg"
   xmlns:svg="http://www.w3.org/2000/svg"><sodipodi:namedview
     id="namedview1"
     pagecolor="#000000"
     bordercolor="#000000"
     borderopacity="0.25"
     inkscape:showpageshadow="2"
     inkscape:pageopacity="0.0"
     inkscape:pagecheckerboard="0"
     inkscape:deskcolor="#d1d1d1"
     inkscape:document-units="mm"
     inkscape:zoom="0.76702439"
     inkscape:cx="543.0075"
     inkscape:cy="393.07746"
     inkscape:window-width="1920"
     inkscape:window-height="1057"
     inkscape:window-x="-8"
     inkscape:window-y="-8"
     inkscape:window-maximized="1"
     inkscape:current-layer="g14" /><defs
     id="defs1"><rect
       x="113.42533"
       y="148.6263"
       width="804.40723"
       height="379.38818"
       id="rect1" /><rect
       x="113.42533"
       y="148.6263"
       width="804.40723"
       height="379.38818"
       id="rect1-1" /><rect
       x="113.42533"
       y="148.6263"
       width="804.40723"
       height="379.38818"
       id="rect1-1-7" /><rect
       x="113.42533"
       y="148.6263"
       width="804.40723"
       height="379.38818"
       id="rect1-1-4" /><rect
       x="113.42533"
       y="148.6263"
       width="804.40723"
       height="379.38818"
       id="rect1-1-4-1" /><rect
       x="113.42533"
       y="148.6263"
       width="804.40723"
       height="379.38818"
       id="rect1-1-6" /><rect
       x="113.42533"
       y="148.6263"
       width="804.40723"
       height="379.38818"
       id="rect1-1-2" /><rect
       x="113.42533"
       y="148.6263"
       width="804.40723"
       height="379.38818"
       id="rect1-1-2-2" /><rect
       x="113.42533"
       y="148.6263"
       width="804.40723"
       height="379.38818"
       id="rect1-1-6-7" /><rect
       x="113.42533"
       y="148.6263"
       width="804.40723"
       height="379.38818"
       id="rect1-1-4-6" /><rect
       x="113.42533"
       y="148.6263"
       width="804.40723"
       height="379.38818"
       id="rect1-1-4-1-0" /><marker
       id="DistanceX"
       orient="auto"
       refX="0"
       refY="0"
       style="overflow:visible"><path
         d="M 3,-3 -3,3 M 0,-5 V 5"
         style="stroke:#000000;stroke-width:0.5"
         id="path1" /></marker><pattern
       id="Hatch"
       patternUnits="userSpaceOnUse"
       width="8"
       height="8"
       x="0"
       y="0"><path
         d="M8 4 l-4,4"
         stroke="#000000"
         stroke-width="0.25"
         linecap="square"
         id="path2" /><path
         d="M6 2 l-4,4"
         stroke="#000000"
         stroke-width="0.25"
         linecap="square"
         id="path3" /><path
         d="M4 0 l-4,4"
         stroke="#000000"
         stroke-width="0.25"
         linecap="square"
         id="path4" /></pattern><symbol
       id="*MODEL_SPACE" /><symbol
       id="*PAPER_SPACE" /></defs><g
     inkscape:label="Layer 1"
     inkscape:groupmode="layer"
     id="layer1"><g
       inkscape:label="0"
       id="g14"
       transform="matrix(0.05840966,0,0,0.05840966,60.416393,28.395959)"
       style="fill:#ffffff;fill-opacity:1;stroke:none"><path
         id="path5"
         style="fill:#ffffff;fill-opacity:1;stroke:none;stroke-width:1.35637"
         d="m -537.41552,1055.1703 v 512.6445 H 0.85945415 A 128.16083,128.16083 0 0 0 129.02058,1439.6537 V 1183.3314 A 128.16083,128.16083 0 0 0 0.85945415,1055.1703 Z m 102.53067,102.5307 H -9.3944979 a 35.885031,35.885031 0 0 1 35.8844089,35.8844 v 235.8143 A 35.885031,35.885031 0 0 1 -9.3944979,1465.293 H -434.88485 Z" /><path
         id="path7"
         style="fill:#ffffff;fill-opacity:1;stroke:none;stroke-width:1.35637"
         d="M 349.45843,1055.1703 A 128.16083,128.16083 0 0 0 221.2973,1183.3314 v 256.3223 a 128.16083,128.16083 0 0 0 128.16113,128.1611 H 759.57228 A 128.16083,128.16083 0 0 0 887.73341,1439.6537 V 1183.3314 A 128.16083,128.16083 0 0 0 759.57228,1055.1703 Z m 10.25396,102.5307 h 389.60594 a 35.885031,35.885031 0 0 1 35.8844,35.8844 v 235.8143 a 35.885031,35.885031 0 0 1 -35.8844,35.8933 H 359.71239 a 35.885031,35.885031 0 0 1 -35.88441,-35.8933 v -235.8143 a 35.885031,35.885031 0 0 1 35.88441,-35.8844 z" /><path
         id="path9"
         style="fill:#ffffff;fill-opacity:1;stroke:none;stroke-width:1.35637"
         d="m 1108.1713,1055.1703 a 128.16083,128.16083 0 0 0 -128.16117,128.1611 v 256.3223 a 128.16083,128.16083 0 0 0 128.16117,128.1611 h 410.1138 a 128.16083,128.16083 0 0 0 128.1611,-128.1611 v -256.3223 a 128.16083,128.16083 0 0 0 -128.1611,-128.1611 z m 10.2539,102.5307 h 389.6059 a 35.885031,35.885031 0 0 1 35.8845,35.8844 v 235.8143 a 35.885031,35.885031 0 0 1 -35.8845,35.8933 h -389.6059 a 35.885031,35.885031 0 0 1 -35.8844,-35.8933 v -235.8143 a 35.885031,35.885031 0 0 1 35.8844,-35.8844 z" /><path
         d="m 2333.4424,1414.0247 a 128.16083,128.16083 0 0 0 71.7149,-115.061 v -115.6284 a 128.16083,128.16083 0 0 0 -128.1609,-128.1609 h -538.2755 v 512.6432 h 186.334 l 95.62,-205.0573 a 118.60702,118.60702 0 1 1 102.5286,0 l 95.6197,205.0573 h 186.3341 z"
         style="fill:#ffffff;fill-opacity:1;stroke:none;stroke-width:1.35637"
         id="path11" /><path
         d="m 2635.8468,1003.9101 h 15.3792 V 901.38146 h -25.6321 a 128.16083,128.16083 0 0 0 -128.1608,128.16074 v 563.9077 a 128.16083,128.16083 0 0 0 128.1608,128.1608 h 25.6321 V 1619.082 h -15.3792 a 35.885031,35.885031 0 0 1 -35.885,-35.885 v -543.4019 a 35.885031,35.885031 0 0 1 35.885,-35.885 z"
         style="fill:#ffffff;fill-opacity:1;stroke:none;stroke-width:1.35637"
         id="path12" /><path
         d="m 3358.6738,1183.3353 a 128.16083,128.16083 0 0 0 -128.1607,-128.1609 h -410.1147 a 128.16083,128.16083 0 0 0 -128.1608,128.1609 v 26.5978 a 128.16083,128.16083 0 0 0 116.9909,127.6731 l 414.1593,36.2343 a 35.885031,35.885031 0 0 1 32.7574,35.7485 v 32.6311 a 35.885031,35.885031 0 0 1 -35.8851,35.885 h -389.6089 a 35.885031,35.885031 0 0 1 -35.885,-35.885 v -28.1954 h -102.5286 v 25.6322 a 128.16083,128.16083 0 0 0 128.1608,128.1607 h 410.1147 a 128.16083,128.16083 0 0 0 128.1607,-128.1607 v -26.5979 a 128.16083,128.16083 0 0 0 -116.9909,-127.6731 l -414.1592,-36.2343 a 35.885031,35.885031 0 0 1 -32.7575,-35.7485 v -32.6311 a 35.885031,35.885031 0 0 1 35.885,-35.885 h 389.6089 a 35.885031,35.885031 0 0 1 35.8851,35.885 v 28.1954 h 102.5286 z"
         style="fill:#ffffff;fill-opacity:1;stroke:none;stroke-width:1.35637"
         id="path13" /><path
         d="M 3553.4783,1029.5422 A 128.16083,128.16083 0 0 0 3425.3175,901.38146 h -25.6322 v 102.52864 h 15.3792 a 35.885031,35.885031 0 0 1 35.8851,35.885 v 543.4019 a 35.885031,35.885031 0 0 1 -35.8851,35.885 h -15.3792 v 102.5287 h 25.6322 a 128.16083,128.16083 0 0 0 128.1608,-128.1608 z"
         style="fill:#ffffff;fill-opacity:1;stroke:none;stroke-width:1.35637"
         id="path14" /></g></g></svg>
