0
SECTION
2
HEADER
9
$INSUNITS
70
4
9
$ACADVER
1
AC1014
9
$HANDSEED
5
FFFF
0
ENDSEC
0
SECTION
2
TABLES
0
TABLE
2
VPORT
5
8
100
AcDbSymbolTable
0
ENDTAB
0
TABLE
2
LTYPE
5
5
100
AcDbSymbolTable
0
LTYPE
5
14
100
AcDbSymbolTableRecord
100
AcDbLinetypeTableRecord
2
BYBLOCK
70
0
0
LTYPE
5
15
100
AcDbSymbolTableRecord
100
AcDbLinetypeTableRecord
2
BYLAYER
70
0
0
LTYPE
5
16
100
AcDbSymbolTableRecord
100
AcDbLinetypeTableRecord
2
DASHED
70
0
3
Dashed __ __ __ __ __ __ __ __ __ __ __ __ __ _
72
65
73
2
40
0.75
49
0.5
74
0
49
-0.25
74
0
0
ENDTAB
0
TABLE
2
LAYER
5
2
100
AcDbSymbolTable
70
2
0
LAYER
5
50
100
AcDbSymbolTableRecord
100
AcDbLayerTableRecord
2
0
70
0
62
7
6
CONTINUOUS
0
ENDTAB
0
TABLE
2
STYLE
5
3
100
AcDbSymbolTable
70
1
0
STYLE
5
11
100
AcDbSymbolTableRecord
100
AcDbTextStyleTableRecord
2
STANDARD
70
0
0
ENDTAB
0
TABLE
2
VIEW
5
6
100
AcDbSymbolTable
70
0
0
ENDTAB
0
TABLE
2
UCS
5
7
100
AcDbSymbolTable
70
0
0
ENDTAB
0
TABLE
2
APPID
5
9
100
AcDbSymbolTable
70
2
0
APPID
5
12
100
AcDbSymbolTableRecord
100
AcDbRegAppTableRecord
2
ACAD
70
0
0
ENDTAB
0
TABLE
2
DIMSTYLE
5
A
100
AcDbSymbolTable
70
1
0
ENDTAB
0
TABLE
2
BLOCK_RECORD
5
1
100
AcDbSymbolTable
70
1
0
BLOCK_RECORD
5
1F
100
AcDbSymbolTableRecord
100
AcDbBlockTableRecord
2
*MODEL_SPACE
0
BLOCK_RECORD
5
1B
100
AcDbSymbolTableRecord
100
AcDbBlockTableRecord
2
*PAPER_SPACE
0
ENDTAB
0
ENDSEC
0
SECTION
2
BLOCKS
0
BLOCK
5
20
100
AcDbEntity
100
AcDbBlockBegin
2
*MODEL_SPACE
0
ENDBLK
5
21
100
AcDbEntity
100
AcDbBlockEnd
0
BLOCK
5
1C
100
AcDbEntity
100
AcDbBlockBegin
2
*PAPER_SPACE
0
ENDBLK
5
1D
100
AcDbEntity
100
AcDbBlockEnd
0
ENDSEC
0
SECTION
2
ENTITIES
0
LWPOLYLINE
5
100
100
AcDbEntity
8
0
100
AcDbPolyline
90
6
70
1
43
0.0
10
130
20
-25
42
0.41421356237309503
10
105
20
-4.4408920985006262e-15
10
0
20
0
10
0
20
-99.999999999999929
10
105
20
-99.999999999999929
42
0.4142135623730952
10
130
20
-74.999999999999915
0
LWPOLYLINE
5
101
100
AcDbEntity
8
0
100
AcDbPolyline
90
6
70
1
43
0.0
10
110
20
-27.000000000000036
10
110
20
-73.000000000000014
42
-0.41421356237309503
10
102.99999999999999
20
-80.000000000000014
10
20
20
-80.000000000000014
10
20.000000000000036
20
-20
10
103
20
-20.000000000000043
42
-0.41421356237309503
0
LWPOLYLINE
5
102
100
AcDbEntity
8
0
100
AcDbPolyline
90
8
70
1
43
0.0
10
278
20
-24.999999999999986
42
0.41421356237309503
10
253
20
8.8817841970012523e-15
10
173
20
1.3322676295501878e-14
42
0.41421356237309515
10
148.00000000000003
20
-24.999999999999982
10
148
20
-75.000000000000043
42
0.41421356237309498
10
173
20
-100.00000000000003
10
253
20
-100.00000000000001
42
0.4142135623730952
10
278
20
-75.000000000000014
0
LWPOLYLINE
5
103
100
AcDbEntity
8
0
100
AcDbPolyline
90
8
70
1
43
0.0
10
250.99999999999994
20
-80.000000000000014
10
175
20
-80.000000000000014
42
-0.41421356237309503
10
168
20
-73.000000000000028
10
168
20
-26.999999999999993
42
-0.41421356237309503
10
175
20
-19.999999999999993
10
251
20
-20.000000000000028
42
-0.41421356237309559
10
258
20
-27.000000000000032
10
257.99999999999994
20
-73.000000000000028
42
-0.4142135623730947
0
LWPOLYLINE
5
104
100
AcDbEntity
8
0
100
AcDbPolyline
90
8
70
1
43
0.0
10
401.00000000000011
20
-100.00000000000003
42
0.4142135623730952
10
426.00000000000011
20
-75.000000000000028
10
426.00000000000011
20
-24.999999999999972
42
0.41421356237309503
10
401.00000000000011
20
2.2204460492503131e-14
10
321
20
2.6645352591003757e-14
42
0.41421356237309503
10
296
20
-24.999999999999979
10
296
20
-75.000000000000057
42
0.4142135623730947
10
321
20
-100.00000000000003
0
LWPOLYLINE
5
105
100
AcDbEntity
8
0
100
AcDbPolyline
90
8
70
1
43
0.0
10
323.00000000000006
20
-19.999999999999972
10
399
20
-19.999999999999972
42
-0.41421356237309503
10
406
20
-27
10
405.99999999999994
20
-73.000000000000028
42
-0.41421356237309503
10
399
20
-80.000000000000014
10
323.00000000000006
20
-79.999999999999972
42
-0.41421356237309503
10
316.00000000000006
20
-72.999999999999972
10
316.00000000000006
20
-26.999999999999975
42
-0.41421356237309503
0
LWPOLYLINE
5
106
100
AcDbEntity
8
0
100
AcDbPolyline
90
11
70
1
43
0.0
10
560.01077025536449
20
-70.000000000000256
42
0.28612513863338201
10
574.00000000000011
20
-47.555336082187011
10
574.00000000000011
20
-24.999999999999773
42
0.41421356237309481
10
549
20
2.0872192862952943e-13
10
444.00000000000006
20
3.5527136788005009e-14
10
444.00000000000006
20
-100.00000000000026
10
480.34769367380261
20
-100.00000000000131
10
499.00000000000006
20
-60.000000000001435
42
-4.4000000000001611
10
519
20
-60.000000000001393
10
537.65230632619409
20
-100.00000000000125
10
574.00000000000057
20
-99.999999999999972
0
LWPOLYLINE
5
107
100
AcDbEntity
8
0
100
AcDbPolyline
90
12
70
1
43
0.0
10
618.9999999999394
20
9.9999999996524895
10
622.00000000000443
20
9.9999999999117275
10
622.00000000000443
20
29.99999999999476
10
617.00000000000443
20
29.99999999999476
42
0.41421356237309503
10
592.00000000000011
20
4.999999999990421
10
592
20
-104.99999999942904
42
0.41421356237318868
10
616.99999999994031
20
-129.99999999937705
10
621.99999999994293
20
-129.99999999933422
10
621.99999999993588
20
-109.99999999937081
10
618.999999999691
20
-109.99999999936215
42
-0.41421356237308832
10
612
20
-102.99999999967108
10
612
20
2.9999999996756959
42
-0.4142135623715365
0
LWPOLYLINE
5
108
100
AcDbEntity
8
0
100
AcDbPolyline
90
28
70
1
43
0.0
10
759.99999999999784
20
-25.000000000010573
42
0.41421356237302848
10
734.99999999998727
20
5.773159728050814e-12
10
654.99999999999955
20
1.3766765505351941e-13
42
0.41421356237309342
10
630.00000000000023
20
-24.999999999999368
10
630.00000000000011
20
-30.188381098944742
42
0.38887873185299104
10
652.82110643124656
20
-55.093248551170504
10
733.61009019923449
20
-62.161368768651151
42
-0.38887873185293742
10
740.00000000000068
20
-69.134731655291986
10
740.00000000000023
20
-75.499999999994074
42
-0.41421356237309209
10
732.99999999999432
20
-82.500000000000014
10
657.00000000000557
20
-82.499999999993037
42
-0.41421356237310653
10
649.99999999999829
20
-75.499999999985775
10
649.99999999999829
20
-69.999999999965979
10
629.9999999999967
20
-69.999999999965979
10
629.99999999999682
20
-74.999999999965979
42
0.41421356237309503
10
655.00000000002547
20
-99.999999999994543
10
734.99999999998511
20
-99.999999999999943
42
0.41421356237309503
10
759.99999999999193
20
-74.999999999993122
10
759.99999999999727
20
-69.811618901073174
42
0.3888787318529543
10
737.17889356873525
20
-44.906751448827222
10
656.38990980076665
20
-37.838631231349702
42
-0.38887873185302602
10
650.00000000000023
20
-30.865268344706568
10
650.00000000000011
20
-24.50000000000605
42
-0.41421356237309653
10
657.00000000000625
20
-17.499999999999915
10
733.00000000000648
20
-17.500000000008164
42
-0.41421356237309453
10
739.99999999999216
20
-24.499999999993825
10
739.99999999999216
20
-30.000000000012058
10
759.99999999999716
20
-30.000000000010569
0
LWPOLYLINE
5
109
100
AcDbEntity
8
0
100
AcDbPolyline
90
12
70
1
43
0.0
10
797.9999999999884
20
4.9999999999898312
42
0.41421356237309176
10
772.99999999998124
20
29.999999999997652
10
767.99999999998113
20
29.999999999994522
10
767.99999999997954
20
9.9999999999958256
10
771.00000000000591
20
9.9999999996122231
42
-0.41421356237354778
10
777.99999999994543
20
2.9999999996667448
10
777.99999999994452
20
-102.99999999967154
42
-0.41421356237345108
10
771.00000000024477
20
-109.99999999936244
10
768.00000000006446
20
-109.99999999937123
10
768.00000000005741
20
-129.99999999933462
10
773.00000000005844
20
-129.99999999936259
42
0.41421356237323198
10
797.99999999998761
20
-104.99999999942963
0
ENDSEC
0
SECTION
2
OBJECTS
0
DICTIONARY
5
C
100
AcDbDictionary
3
ACAD_GROUP
350
D
3
ACAD_MLINESTYLE
350
17
0
DICTIONARY
5
D
100
AcDbDictionary
0
DICTIONARY
5
1A
330
C
100
AcDbDictionary
0
DICTIONARY
5
17
100
AcDbDictionary
0
ENDSEC
0
EOF
